<svg width="2048" height="2048" xmlns="http://www.w3.org/2000/svg"><path d="M1504 256q119 0 203.5 84.5T1792 544v960q0 119-84.5 203.5T1504 1792H544q-119 0-203.5-84.5T256 1504V544q0-119 84.5-203.5T544 256h960zm32 1056V876q-31 35-64 55-34 22-132.5 85t-151.5 99q-98 69-164 69t-164-69q-46-32-141.5-92.5T576 930q-12-8-33-27t-31-27v436q0 40 28 68t68 28h832q40 0 68-28t28-68zm0-573q0-41-27.5-70t-68.5-29H608q-40 0-68 28t-28 68q0 37 30.5 76.5T610 877q47 32 137.5 89t129.5 83q3 2 17 11.5t21 14 21 13 23.5 13 21.5 9.5 22.5 7.5 20.5 2.5 20.5-2.5 22.5-7.5 21.5-9.5 23.5-13 21-13 21-14 17-11.5l267-174q35-23 66.5-62.5T1536 739z"/></svg>