<svg xmlns="http://www.w3.org/2000/svg" viewBox="0 0 2048 2048"><circle cx="1023" cy="1023" r="227.9"/><path d="M1556.1 619.7c-12.4-31.9-27.2-54.7-51.2-78.6-23.9-23.9-46.7-38.7-78.6-51.2-24.1-9.4-60.3-20.5-127-23.5-72.1-3.3-93.7-4-276.3-4s-204.2.7-276.3 4c-66.7 3-102.9 14.2-127 23.5-31.9 12.4-54.7 27.2-78.6 51.2-23.9 23.9-38.7 46.7-51.2 78.6-9.4 24.1-20.5 60.3-23.5 127-3.3 72.1-4 93.7-4 276.3s.7 204.2 4 276.3c3 66.7 14.2 102.9 23.5 127 12.4 31.9 27.2 54.7 51.2 78.6 23.9 23.9 46.7 38.7 78.6 51.2 24.1 9.4 60.3 20.5 127 23.5 72.1 3.3 93.7 4 276.3 4s204.2-.7 276.3-4c66.7-3 102.9-14.2 127-23.5 31.9-12.4 54.7-27.2 78.6-51.2 23.9-23.9 38.7-46.7 51.2-78.6 9.4-24.1 20.5-60.3 23.5-127 3.3-72.1 4-93.7 4-276.3s-.7-204.2-4-276.3c-3-66.7-14.1-102.9-23.5-127zM1023 1374.2c-193.9 0-351.2-157.2-351.2-351.2S829.1 671.8 1023 671.8 1374.2 829 1374.2 1023s-157.3 351.2-351.2 351.2zM1388 740c-45.3 0-82.1-36.7-82.1-82.1s36.7-82.1 82.1-82.1 82.1 36.7 82.1 82.1-36.7 82.1-82.1 82.1z"/><path d="M1024 0C458.5 0 0 458.5 0 1024s458.5 1024 1024 1024 1024-458.5 1024-1024S1589.5 0 1024 0zm678.7 1304.9c-3.3 72.8-14.9 122.5-31.8 166-17.5 45-40.9 83.1-78.9 121.1-38 38-76.2 61.4-121.1 78.9-43.5 16.9-93.2 28.5-166 31.8-72.9 3.3-96.2 4.1-281.9 4.1s-209-.8-281.9-4.1c-72.8-3.3-122.5-14.9-166-31.8-45-17.5-83.1-40.9-121.1-78.9-38-38-61.4-76.2-78.9-121.1-16.9-43.5-28.5-93.2-31.8-166-3.3-72.9-4.1-96.2-4.1-281.9s.8-209 4.1-281.9c3.3-72.8 14.9-122.5 31.8-166C392.6 530.1 416 492 454 454c38-38 76.2-61.4 121.1-78.9 43.5-16.9 93.2-28.5 166-31.8 72.9-3.3 96.2-4.1 281.9-4.1s209 .8 281.9 4.1c72.8 3.3 122.5 14.9 166 31.8 45 17.5 83.1 40.9 121.1 78.9 38 38 61.4 76.2 78.9 121.1 16.9 43.5 28.5 93.2 31.8 166 3.3 72.9 4.1 96.2 4.1 281.9s-.8 209-4.1 281.9z"/></svg>