<svg xmlns="http://www.w3.org/2000/svg" viewBox="0 0 2048 2048"><path d="M1024 0C458.5 0 0 458.5 0 1024s458.5 1024 1024 1024 1024-458.5 1024-1024S1589.5 0 1024 0zm312.8 559.6c-39.1-.6-78.2-.3-117.3-.2-52 .2-83.2 26.9-86.4 78.4-2.6 41.3-.7 82.8-1.7 124.2-.4 14.7 8.4 13.7 18.2 13.7 59.4-.1 118.8.6 178.2-.4 17.4-.3 23.2 3.7 21.2 22.1-7.5 69.1-13.9 138.4-19.8 207.6-1.3 15.6-8.5 18.6-22.5 18.4-46.9-.7-93.8-.5-140.7-.2-33.7.2-30.4-4.9-30.4 29.4-.2 215.7-.4 431.5.5 647.2.1 22.8-5.7 28.4-28.3 28-80.5-1.5-161-1.6-241.5 0-22.7.5-26.4-7.2-26.2-27.5.9-108.7.4-217.3.4-326 0-110.2-.4-220.4.4-330.7.2-18.6-5.1-24.4-23.7-23.6-34.3 1.4-68.8-.1-103.2.7-13.9.4-19.1-3.5-18.9-18.3.7-68.8.6-137.6.1-206.4-.1-13.2 3.9-17.6 17.2-17.3 35.2.8 70.4-1 105.5.8 20.3 1 24.6-6.2 24.1-25.1-1.2-52.3-1.2-104.8-.1-157.1 1.4-63.9 18.6-123.6 56.6-175.6 48.2-65.8 116.7-95.9 195.7-99.5 81.2-3.6 162.6-1.6 243.8-2.5 11.3-.1 14.7 3.9 14.7 14.9-.4 69.6-.4 139.1 0 208.7.3 12.7-3.7 16.5-15.9 16.3z"/></svg>