<svg xmlns="http://www.w3.org/2000/svg" viewBox="0 0 2048 2048"><path d="M1960.7 2048h-512.3c-77.8 0-116.8-94.1-61.7-149.1l179.7-179.7-542.4-542.4-542.3 542.3 179.7 179.7c55 55 16.1 149.1-61.8 149.1H87.3c-48.2 0-87.3-39.1-87.3-87.3v-512.3c0-77.8 94.1-116.8 149.1-61.7l179.7 179.7L871.2 1024 328.8 481.7 149.1 661.4C94.1 716.4 0 677.5 0 599.6V87.3C0 39.1 39.1 0 87.3 0h512.3c77.8 0 116.8 94.1 61.8 149.1L481.7 328.8 1024 871.2l542.3-542.3-179.7-179.7c-55-55-16-149.1 61.7-149.1h512.3c48.3 0 87.4 39.1 87.3 87.3v512.3c0 77.8-94.1 116.8-149.1 61.8l-179.7-179.7-542.3 542.2 542.3 542.3 179.7-179.7c55-55 149.1-16 149.1 61.8v512.3c.1 48.2-39 87.3-87.2 87.3"/></svg>