<?xml version="1.0" encoding="utf-8"?><!DOCTYPE svg PUBLIC "-//W3C//DTD SVG 1.1//EN" "http://www.w3.org/Graphics/SVG/1.1/DTD/svg11.dtd"><svg xmlns="http://www.w3.org/2000/svg" xmlns:xlink="http://www.w3.org/1999/xlink"><symbol viewBox="0 0 40.403 40.649" id="arrow-left" xmlns="http://www.w3.org/2000/svg"><path d="M31.7 39.9c-.9.9-2.2 1-3.2.2l-7-4.7c-1-.6-2.5-1.6-3.5-2.3L.7 21.5c-.6-.3-.9-1.1-.6-1.7.1-.3.4-.5.6-.6L18 7.6c1-.6 2.5-1.6 3.5-2.3l7-4.8c1-.6 2.3-.5 3.2.2l8 7.9c.8.7.9 2 .2 2.8v.1l-.1.1-7.2 7.2c-.8.7-.9 2-.2 2.8v.1l.1.1 7.2 7.2c.8.9.8 2.2 0 3.1l-.1-.1-7.9 7.9z"/></symbol><symbol viewBox="0 0 40.403 40.649" id="arrow-right" xmlns="http://www.w3.org/2000/svg"><path d="M8.692.734a2.449 2.449 0 013.211-.247l7.035 4.693c.988.617 2.47 1.605 3.458 2.346l17.29 11.609a1.326 1.326 0 01.617 1.729 1.488 1.488 0 01-.617.617L22.4 33.094c-.988.617-2.47 1.605-3.458 2.346l-7.039 4.816a2.79 2.79 0 01-3.211-.247l-8.027-7.9a1.976 1.976 0 01-.123-2.84l.123-.123 7.163-7.163a1.976 1.976 0 00.123-2.84l-.123-.123-7.164-7.171a2.279 2.279 0 010-3.087l.123-.123z"/></symbol><symbol viewBox="0 0 2048 2048" id="envelope-square" xmlns="http://www.w3.org/2000/svg"><path d="M1504 256q119 0 203.5 84.5T1792 544v960q0 119-84.5 203.5T1504 1792H544q-119 0-203.5-84.5T256 1504V544q0-119 84.5-203.5T544 256h960zm32 1056V876q-31 35-64 55-34 22-132.5 85t-151.5 99q-98 69-164 69t-164-69q-46-32-141.5-92.5T576 930q-12-8-33-27t-31-27v436q0 40 28 68t68 28h832q40 0 68-28t28-68zm0-573q0-41-27.5-70t-68.5-29H608q-40 0-68 28t-28 68q0 37 30.5 76.5T610 877q47 32 137.5 89t129.5 83q3 2 17 11.5t21 14 21 13 23.5 13 21.5 9.5 22.5 7.5 20.5 2.5 20.5-2.5 22.5-7.5 21.5-9.5 23.5-13 21-13 21-14 17-11.5l267-174q35-23 66.5-62.5T1536 739z"/></symbol><symbol viewBox="0 0 48 48" id="heart-full" xmlns="http://www.w3.org/2000/svg"><path d="M44.463 23.787L24 45 3.537 23.787c-4.686-4.686-4.686-12.285 0-16.971s12.285-4.686 16.971 0L24 11.061l3.492-4.242c4.686-4.686 12.285-4.686 16.971 0 4.686 4.683 4.686 12.282 0 16.968z"/></symbol><symbol viewBox="0 0 2048 2048" id="phone-square" xmlns="http://www.w3.org/2000/svg"><path d="M1536 1321q0-11-2-16-3-8-38.5-29.5T1407 1226l-53-29q-5-3-19-13t-25-15-21-5q-18 0-47 32.5t-57 65.5-44 33q-7 0-16.5-3.5t-15.5-6.5-17-9.5-14-8.5q-99-55-170.5-126.5T781 970q-2-3-8.5-14t-9.5-17-6.5-15.5T753 907q0-13 20.5-33.5t45-38.5 45-39.5T884 759q0-10-5-21t-15-25-13-19q-3-6-15-28.5T811 620t-26.5-47.5-25-40.5-16.5-18-16-2q-48 0-101 22-46 21-80 94.5T512 759q0 16 2.5 34t5 30.5 9 33 10 29.5 12.5 33 11 30q60 164 216.5 320.5T1099 1486q6 2 30 11t33 12.5 29.5 10 33 9 30.5 5 34 2.5q57 0 130.5-34t94.5-80q22-53 22-101zm256-777v960q0 119-84.5 203.5T1504 1792H544q-119 0-203.5-84.5T256 1504V544q0-119 84.5-203.5T544 256h960q119 0 203.5 84.5T1792 544z"/></symbol><symbol viewBox="0 0 2048 2048" id="zoom" xmlns="http://www.w3.org/2000/svg"><path d="M1960.7 2048h-512.3c-77.8 0-116.8-94.1-61.7-149.1l179.7-179.7-542.4-542.4-542.3 542.3 179.7 179.7c55 55 16.1 149.1-61.8 149.1H87.3c-48.2 0-87.3-39.1-87.3-87.3v-512.3c0-77.8 94.1-116.8 149.1-61.7l179.7 179.7L871.2 1024 328.8 481.7 149.1 661.4C94.1 716.4 0 677.5 0 599.6V87.3C0 39.1 39.1 0 87.3 0h512.3c77.8 0 116.8 94.1 61.8 149.1L481.7 328.8 1024 871.2l542.3-542.3-179.7-179.7c-55-55-16-149.1 61.7-149.1h512.3c48.3 0 87.4 39.1 87.3 87.3v512.3c0 77.8-94.1 116.8-149.1 61.8l-179.7-179.7-542.3 542.2 542.3 542.3 179.7-179.7c55-55 149.1-16 149.1 61.8v512.3c.1 48.2-39 87.3-87.2 87.3"/></symbol></svg>