<svg xmlns="http://www.w3.org/2000/svg" width="40.403" height="40.649" viewBox="0 0 40.403 40.649">
	<path
		d="M9.254,1.44a2.449,2.449,0,0,1,3.211-.247L19.5,5.886c.988.617,2.47,1.605,3.458,2.346l17.29,11.609a1.326,1.326,0,0,1,.617,1.729,1.488,1.488,0,0,1-.617.617L22.962,33.8c-.988.617-2.47,1.605-3.458,2.346l-7.039,4.816a2.79,2.79,0,0,1-3.211-.247l-8.027-7.9a1.976,1.976,0,0,1-.123-2.84l.123-.123,7.163-7.163a1.976,1.976,0,0,0,.123-2.84l-.123-.123L1.226,12.555a2.279,2.279,0,0,1,0-3.087l.123-.123Z"
		transform="translate(-0.562 -0.706)"/>
</svg>
