<svg version="1.1" id="Layer_1" xmlns="http://www.w3.org/2000/svg" xmlns:xlink="http://www.w3.org/1999/xlink" x="0px" y="0px" width="24px" height="24px"
	 viewBox="0 0 24 24" enable-background="new 0 0 24 24" xml:space="preserve">
<g>
	<g>
		<g>
			<path d="M18,22H4c-2.2,0-4-1.8-4-4V8c0-2.2,1.8-4,4-4h11c0.6,0,1,0.4,1,1s-0.4,1-1,1H4C2.9,6,2,6.9,2,8v10c0,1.1,0.9,2,2,2h14
				c1.1,0,2-0.9,2-2v-7c0-0.6,0.4-1,1-1s1,0.4,1,1v7C22,20.2,20.2,22,18,22z"/>
		</g>
	</g>
	<g>
		<g>
			<path d="M15,12c-0.3,0-0.5-0.1-0.7-0.3c-0.4-0.4-0.4-1,0-1.4l8-8c0.4-0.4,1-0.4,1.4,0s0.4,1,0,1.4l-8,8C15.5,11.9,15.3,12,15,12z
				"/>
		</g>
	</g>
	<g>
		<g>
			<path d="M23,4h-4c-0.6,0-1-0.4-1-1s0.4-1,1-1h4c0.6,0,1,0.4,1,1S23.6,4,23,4z"/>
		</g>
	</g>
	<g>
		<g>
			<path d="M23,8c-0.6,0-1-0.4-1-1V3c0-0.6,0.4-1,1-1s1,0.4,1,1v4C24,7.6,23.6,8,23,8z"/>
		</g>
	</g>
</g>
</svg>
