<?xml version="1.0" encoding="utf-8"?>
<!-- Generator: Adobe Illustrator 19.1.0, SVG Export Plug-In . SVG Version: 6.00 Build 0)  -->
<svg version="1.1" id="Ebene_1" xmlns="http://www.w3.org/2000/svg" xmlns:xlink="http://www.w3.org/1999/xlink" x="0px" y="0px"
	 viewBox="0 0 2048 2048" style="enable-background:new 0 0 2048 2048;" xml:space="preserve">
<path d="M1024,0C458.5,0,0,458.5,0,1024s458.5,1024,1024,1024s1024-458.5,1024-1024S1589.5,0,1024,0z M1336.8,559.6
	c-39.1-0.6-78.2-0.3-117.3-0.2c-52,0.2-83.2,26.9-86.4,78.4c-2.6,41.3-0.7,82.8-1.7,124.2c-0.4,14.7,8.4,13.7,18.2,13.7
	c59.4-0.1,118.8,0.6,178.2-0.4c17.4-0.3,23.2,3.7,21.2,22.1c-7.5,69.1-13.9,138.4-19.8,207.6c-1.3,15.6-8.5,18.6-22.5,18.4
	c-46.9-0.7-93.8-0.5-140.7-0.2c-33.7,0.2-30.4-4.9-30.4,29.4c-0.2,215.7-0.4,431.5,0.5,647.2c0.1,22.8-5.7,28.4-28.3,28
	c-80.5-1.5-161-1.6-241.5,0c-22.7,0.5-26.4-7.2-26.2-27.5c0.9-108.7,0.4-217.3,0.4-326c0-110.2-0.4-220.4,0.4-330.7
	c0.2-18.6-5.1-24.4-23.7-23.6c-34.3,1.4-68.8-0.1-103.2,0.7c-13.9,0.4-19.1-3.5-18.9-18.3c0.7-68.8,0.6-137.6,0.1-206.4
	c-0.1-13.2,3.9-17.6,17.2-17.3c35.2,0.8,70.4-1,105.5,0.8c20.3,1,24.6-6.2,24.1-25.1c-1.2-52.3-1.2-104.8-0.1-157.1
	c1.4-63.9,18.6-123.6,56.6-175.6c48.2-65.8,116.7-95.9,195.7-99.5c81.2-3.6,162.6-1.6,243.8-2.5c11.3-0.1,14.7,3.9,14.7,14.9
	c-0.4,69.6-0.4,139.1,0,208.7C1353,556,1349,559.8,1336.8,559.6z"/>
</svg>
