<?xml version="1.0" encoding="utf-8"?>
<!-- Generator: Adobe Illustrator 19.2.1, SVG Export Plug-In . SVG Version: 6.00 Build 0)  -->
<svg version="1.1" id="Ebene_1" xmlns="http://www.w3.org/2000/svg" xmlns:xlink="http://www.w3.org/1999/xlink" x="0px" y="0px"
	 viewBox="0 0 2048 2048" style="enable-background:new 0 0 2048 2048;" xml:space="preserve">
<g>
	<circle cx="1023" cy="1023" r="227.9"/>
	<path d="M1556.1,619.7c-12.4-31.9-27.2-54.7-51.2-78.6c-23.9-23.9-46.7-38.7-78.6-51.2c-24.1-9.4-60.3-20.5-127-23.5
		c-72.1-3.3-93.7-4-276.3-4s-204.2,0.7-276.3,4c-66.7,3-102.9,14.2-127,23.5c-31.9,12.4-54.7,27.2-78.6,51.2
		c-23.9,23.9-38.7,46.7-51.2,78.6c-9.4,24.1-20.5,60.3-23.5,127c-3.3,72.1-4,93.7-4,276.3s0.7,204.2,4,276.3
		c3,66.7,14.2,102.9,23.5,127c12.4,31.9,27.2,54.7,51.2,78.6c23.9,23.9,46.7,38.7,78.6,51.2c24.1,9.4,60.3,20.5,127,23.5
		c72.1,3.3,93.7,4,276.3,4s204.2-0.7,276.3-4c66.7-3,102.9-14.2,127-23.5c31.9-12.4,54.7-27.2,78.6-51.2
		c23.9-23.9,38.7-46.7,51.2-78.6c9.4-24.1,20.5-60.3,23.5-127c3.3-72.1,4-93.7,4-276.3s-0.7-204.2-4-276.3
		C1576.6,680,1565.5,643.8,1556.1,619.7z M1023,1374.2c-193.9,0-351.2-157.2-351.2-351.2S829.1,671.8,1023,671.8
		s351.2,157.2,351.2,351.2S1216.9,1374.2,1023,1374.2z M1388,740c-45.3,0-82.1-36.7-82.1-82.1s36.7-82.1,82.1-82.1
		s82.1,36.7,82.1,82.1S1433.4,740,1388,740z"/>
	<path d="M1024,0C458.5,0,0,458.5,0,1024s458.5,1024,1024,1024s1024-458.5,1024-1024S1589.5,0,1024,0z M1702.7,1304.9
		c-3.3,72.8-14.9,122.5-31.8,166c-17.5,45-40.9,83.1-78.9,121.1c-38,38-76.2,61.4-121.1,78.9c-43.5,16.9-93.2,28.5-166,31.8
		c-72.9,3.3-96.2,4.1-281.9,4.1s-209-0.8-281.9-4.1c-72.8-3.3-122.5-14.9-166-31.8c-45-17.5-83.1-40.9-121.1-78.9
		c-38-38-61.4-76.2-78.9-121.1c-16.9-43.5-28.5-93.2-31.8-166c-3.3-72.9-4.1-96.2-4.1-281.9c0-185.7,0.8-209,4.1-281.9
		c3.3-72.8,14.9-122.5,31.8-166c17.5-45,40.9-83.1,78.9-121.1c38-38,76.2-61.4,121.1-78.9c43.5-16.9,93.2-28.5,166-31.8
		c72.9-3.3,96.2-4.1,281.9-4.1s209,0.8,281.9,4.1c72.8,3.3,122.5,14.9,166,31.8c45,17.5,83.1,40.9,121.1,78.9
		c38,38,61.4,76.2,78.9,121.1c16.9,43.5,28.5,93.2,31.8,166c3.3,72.9,4.1,96.2,4.1,281.9S1706,1232,1702.7,1304.9z"/>
</g>
</svg>
