<?xml version="1.0" encoding="utf-8"?>
<!-- Generator: Adobe Illustrator 19.2.1, SVG Export Plug-In . SVG Version: 6.00 Build 0)  -->
<svg version="1.1" id="Ebene_1" xmlns:sketch="http://www.bohemiancoding.com/sketch/ns"
	 xmlns="http://www.w3.org/2000/svg" xmlns:xlink="http://www.w3.org/1999/xlink" x="0px" y="0px" viewBox="0 0 2048 2048"
	 style="enable-background:new 0 0 2048 2048;" xml:space="preserve">
<title>7</title>
	<desc>Created with Sketch.</desc>
	<g sketch:type="MSPage">
	<path sketch:type="MSShapeGroup" d="M1960.7,2048h-512.3c-77.8,0-116.8-94.1-61.7-149.1l179.7-179.7L1024,1176.8l-542.3,542.3
		l179.7,179.7c55,55,16.1,149.1-61.8,149.1H87.3c-48.2,0-87.3-39.1-87.3-87.3v-512.3c0-77.8,94.1-116.8,149.1-61.7l179.7,179.7
		L871.2,1024L328.8,481.7L149.1,661.4C94.1,716.4,0,677.5,0,599.6V87.3C0,39.1,39.1,0,87.3,0h512.3c77.8,0,116.8,94.1,61.8,149.1
		L481.7,328.8L1024,871.2l542.3-542.3l-179.7-179.7c-55-55-16-149.1,61.7-149.1h512.3c48.3,0,87.4,39.1,87.3,87.3v512.3
		c0,77.8-94.1,116.8-149.1,61.8l-179.7-179.7L1176.8,1024l542.3,542.3l179.7-179.7c55-55,149.1-16,149.1,61.8v512.3
		C2048,2008.9,2008.9,2048,1960.7,2048"/>
</g>
</svg>
